<svg xmlns="http://www.w3.org/2000/svg" xmlns:xlink="http://www.w3.org/1999/xlink" width="288px" height="253px" version="1.1" viewBox="0 0 288 253">
    <defs>
        <path id="path-1" d="M41.893333,10.0913086 C43.2644336,9.93310468 44.6091467,10.1044897 45.9275127,10.6054688 C47.2458786,11.1064478 48.340106,11.8579051 49.2102275,12.8598633 C50.4758588,14.4419024 51.4778019,16.1096104 52.2160869,17.8630371 C52.9543718,19.6164638 53.3366922,21.4819237 53.3630595,23.4594727 C53.0466517,26.7553876 52.1963184,29.7018913 50.8120341,32.2990723 C49.4277499,34.8962532 47.8193675,36.9924237 45.9868388,38.5876465 C44.1543101,40.1828693 42.2492999,41.2111793 40.2717509,41.6726074 C38.294202,42.1340355 36.5671685,41.876958 35.0905986,40.9013672 C34.958762,40.8486325 34.8928447,40.7827152 34.8928447,40.7036133 C37.1076995,41.8637753 39.1247692,41.4748632 40.9441142,39.5368652 C42.7634593,37.5988673 44.2334153,35.1269682 45.3540263,32.1210938 C46.4746374,29.1152193 47.1667692,26.0764314 47.4304423,23.0046387 C47.6941155,19.932846 47.3513455,17.8432673 46.402122,16.7358398 C45.1892253,15.3647392 43.3171738,15.0944783 40.7859111,15.9250488 C38.2546484,16.7556194 35.5784057,18.1596581 32.7571025,20.137207 C29.9357993,22.114756 27.2331896,24.3823114 24.6491923,26.9399414 C22.065195,29.4975714 20.1404096,31.8178607 18.8747783,33.9008789 C17.5564123,36.0366318 16.2973917,38.0998436 15.0976787,40.0905762 C13.8979656,42.0813088 12.7971466,44.0720115 11.7951884,46.0627441 C10.7932303,48.0534768 9.92312182,50.0837299 9.18483688,52.1535645 C8.44655193,54.223399 7.87966307,56.3920785 7.48415328,58.659668 C7.22048009,60.1626052 7.04250335,61.7578041 6.95021773,63.4453125 C6.85793212,65.1328209 6.85793212,66.8268958 6.95021773,68.5275879 C7.04250335,70.22828 7.23366355,71.8762127 7.52370406,73.4714355 C7.81374458,75.0666584 8.19606497,76.5102474 8.67067672,77.8022461 C9.27712506,79.5161219 10.3515772,80.860835 11.8940654,81.8364258 C13.4365536,82.8120166 15.28883,83.2998047 17.4509502,83.2998047 C18.4001737,83.2998047 19.4680341,83.1745618 20.6545634,82.9240723 C21.8410928,82.6735827 23.0276044,82.3505879 24.2141338,81.9550781 C25.4006631,81.5595683 26.5410326,81.1047389 27.6352763,80.5905762 C28.7295201,80.0764134 29.711688,79.5556667 30.5818095,79.0283203 C32.770297,77.6308524 34.5302892,76.4772995 35.8618388,75.567627 C37.1933885,74.6579544 38.4128587,73.7680708 39.5202861,72.8979492 C40.6277135,72.0278277 41.7812664,71.065435 42.9809795,70.0107422 C44.1806925,68.9560494 45.7561162,67.5849694 47.7072978,65.8974609 C48.2346442,65.4492165 48.6037811,64.9877953 48.8147197,64.5131836 C49.0256582,64.0385718 49.2234102,63.8671868 49.4079814,63.9990234 C49.5925526,64.1572274 49.5793692,64.4340801 49.3684306,64.8295898 C49.1574921,65.2250996 48.8542724,65.7260712 48.4587627,66.3325195 C47.8523143,67.0708045 47.2920172,67.7958949 46.7778545,68.5078125 C46.2636917,69.2197301 45.6638442,69.9711875 44.9782939,70.762207 C44.2927436,71.5532266 43.4687772,72.4035599 42.5063701,73.3132324 C41.5439629,74.2229049 40.3244927,75.2314398 38.8479228,76.3388672 C35.393804,78.8701298 31.7485768,81.0783597 27.9121318,82.963623 C24.0756868,84.8488864 20.0876896,85.8837881 15.9480205,86.0683594 C13.4167578,86.2265633 11.2283031,85.8574264 9.38259078,84.9609375 C7.53687843,84.0644486 5.90212915,82.732919 4.47829391,80.9663086 C3.02809134,78.9623923 1.97341439,76.7343873 1.31423141,74.2822266 C0.655048423,71.8300659 0.285911489,69.3383916 0.206809531,66.8071289 C-0.0304963428,62.5356232 0.417741362,58.1323469 1.55153609,53.597168 C2.68533083,49.061989 4.39918087,44.7378135 6.69313766,40.6245117 C8.03787094,38.0932491 9.42872617,35.766368 10.8657451,33.6437988 C12.302764,31.5212296 13.8584125,29.5107517 15.5327373,27.6123047 C17.207062,25.7138577 19.046155,23.9011317 21.0500713,22.1740723 C23.0539875,20.4470128 25.2819926,18.6870207 27.7341533,16.894043 C28.6570095,16.1821253 29.6985029,15.4504432 30.858665,14.6989746 C32.0188271,13.947506 33.2317055,13.2487825 34.4973369,12.6027832 C35.7629682,11.9567839 37.0285805,11.4030785 38.2942119,10.9416504 C39.5598432,10.4802223 40.7595382,10.1967779 41.893333,10.0913086 Z M63.0925517,44.9355469 C64.5427543,44.777343 65.9533847,45.1464799 67.3244853,46.0429688 C68.6955859,46.9394576 69.697529,48.0205015 70.3303447,49.2861328 C70.6467525,49.9980504 70.8708714,50.841792 71.002708,51.8173828 C71.1345446,52.7929736 71.2004619,53.8146919 71.2004619,54.8825684 C71.2004619,55.9504448 71.1213611,57.0117135 70.9631572,58.0664063 C70.8049533,59.121099 70.5808344,60.0834917 70.2907939,60.9536133 C69.3415704,63.405774 68.3066686,65.5480865 67.1860576,67.3806152 C66.0654465,69.2131439 64.3977386,71.170888 62.1828838,73.2539063 C61.6555374,73.7548853 61.0095477,74.2294899 60.2448955,74.6777344 C59.4802432,75.1259788 58.6892355,75.5214827 57.8718486,75.8642578 C57.0544617,76.207033 56.2436788,76.4838857 55.4394755,76.6948242 C54.6352723,76.9057628 53.9167736,77.0112305 53.283958,77.0112305 C51.8337554,77.0903324 50.3967581,76.9189474 48.9729228,76.4970703 C47.5490876,76.0751932 46.5471445,75.3105524 45.9670634,74.203125 C45.1233092,72.6474532 44.6223377,70.814952 44.4641338,68.7055664 C44.3059298,66.5961809 44.5300487,64.5000104 45.136497,62.4169922 C45.7693127,60.17577 46.6394212,58.1257417 47.7468486,56.2668457 C48.854276,54.4079497 50.2780899,52.5820402 52.018333,50.7890625 C53.5476375,49.2070233 55.3142214,47.8886771 57.3181377,46.8339844 C59.3220539,45.7792916 61.2468394,45.1464854 63.0925517,44.9355469 Z M66.0984111,48.4951172 C65.9665745,47.9677708 65.4721947,47.6118173 64.6152568,47.4272461 C63.7583189,47.2426749 63.0530037,47.3481426 62.49929,47.7436523 C60.7590469,48.9301817 59.2033984,50.2353444 57.8322978,51.6591797 C56.4611972,53.0830149 55.1955849,54.7177642 54.0354228,56.5634766 C52.6643222,58.7783314 51.6294204,60.894277 50.9306865,62.911377 C50.2319525,64.9284769 49.6057381,67.1367068 49.0520244,69.5361328 C48.8147185,70.5117236 48.7619847,71.4807081 48.8938213,72.4431152 C49.0256578,73.4055224 49.4079782,74.0053699 50.0407939,74.2426758 C50.8318135,74.5590836 51.9326326,74.5920423 53.3432841,74.3415527 C54.7539357,74.0910632 55.8943052,73.4912157 56.7644267,72.5419922 C58.689241,70.4853413 60.2712565,68.3166618 61.5105205,66.0358887 C62.7497845,63.7551155 63.8835622,61.2568495 64.9118877,58.5410156 C66.3620902,54.7968563 66.7575941,51.448257 66.0984111,48.4951172 Z M97.5412822,51.1845703 C97.1194051,50.5253873 96.4206816,50.1101083 95.4450908,49.9387207 C94.4695,49.7673331 93.6125749,49.8793926 92.87429,50.2749023 C91.5295567,50.907718 90.1848436,51.8437438 88.8401103,53.0830078 C87.495377,54.3222718 86.3352324,55.469233 85.3596416,56.5239258 C82.6174404,59.8198407 80.3103345,63.2211739 78.4382548,66.7280273 C78.1745817,67.2290064 77.871362,67.874996 77.5285869,68.6660156 C77.1858117,69.4570352 76.908959,70.2480429 76.6980205,71.0390625 C76.4870819,71.8300821 76.4013894,72.5551725 76.4409404,73.2143555 C76.4804914,73.8735385 76.7375689,74.3217762 77.2121806,74.559082 C77.4758538,74.7172859 77.8318073,74.7106942 78.2800517,74.5393066 C78.7282961,74.3679191 79.1897173,74.124025 79.6643291,73.8076172 C80.1389408,73.4912094 80.6201372,73.1418476 81.1079326,72.7595215 C81.595728,72.3771954 82.0241905,72.067384 82.393333,71.8300781 C84.7136571,69.7470599 87.0009877,67.565197 89.2553935,65.2844238 C91.5097993,63.0036507 93.625745,60.571302 95.6032939,57.9873047 C96.2097423,57.0644485 96.5986544,55.9768129 96.770042,54.7243652 C96.9414295,53.4719176 97.198507,52.2919977 97.5412822,51.1845703 Z M93.7048564,77.1298828 C93.6784891,77.0771482 93.6653056,77.0639647 93.6653056,77.090332 C93.2170612,75.8774353 92.9599837,74.6909238 92.8940654,73.5307617 C92.8281471,72.3705997 92.8611057,71.0786204 92.9929423,69.6547852 C93.045677,68.7582963 93.1511447,67.7036193 93.3093486,66.4907227 C93.4675525,65.277826 93.5862037,64.4736348 93.6653056,64.078125 C93.2697958,64.4736348 92.6435814,65.1196244 91.7866435,66.0161133 C90.9297056,66.9126021 89.9673129,67.8815866 88.8994365,68.9230957 C87.8315601,69.9646048 86.7043741,71.0192818 85.5178447,72.0871582 C84.3313153,73.1550346 83.2107211,74.0712852 82.1560283,74.8359375 C81.0486009,75.6533244 79.8027637,76.5102494 78.4184795,77.4067383 C77.0341952,78.3032271 75.6301565,78.7514648 74.2063213,78.7514648 C73.0197919,78.5932609 72.1694586,78.0988811 71.6552959,77.2683105 C71.1411331,76.43774 70.8840556,75.5083059 70.8840556,74.4799805 C70.9367903,73.4252877 71.0027076,72.3112852 71.0818095,71.1379395 C71.1609115,69.9645937 71.3982138,68.9033251 71.7937236,67.9541016 C73.2175588,64.4999827 74.9380006,61.2436676 76.9551005,58.1850586 C78.9722005,55.1264496 81.5627507,52.3842895 84.7268291,49.9584961 C86.1506643,48.9038033 87.8381474,47.9414106 89.7893291,47.0712891 C91.7405107,46.2011675 93.6125623,45.7661133 95.40554,45.7661133 C95.7219478,45.7661133 96.0185757,45.8452141 96.2954326,46.003418 C96.5722894,46.1616219 96.9216512,46.2407227 97.3435283,46.2407227 C98.3454864,42.9184404 99.2749205,39.6753088 100.131858,36.5112305 C100.988796,33.3471521 102.089615,30.1040205 103.434349,26.7817383 C103.671654,26.2016573 103.955099,25.522709 104.28469,24.744873 C104.614282,23.9670371 105.055928,23.3408227 105.609642,22.8662109 C106.374294,22.3915992 107.125751,22.2597646 107.864036,22.4707031 C108.602321,22.6816417 109.406512,22.7871094 110.276634,22.7871094 C110.830347,23.3144558 111.087425,23.9472619 111.047874,24.6855469 C111.008323,25.4238318 110.790796,26.1489222 110.395286,26.8608398 C109.709736,28.1528385 109.129663,29.4052674 108.655052,30.6181641 C108.18044,31.8310608 107.679468,33.0834896 107.152122,34.3754883 C106.413837,36.0366294 105.464628,38.7787895 104.304466,42.6020508 C103.144304,46.4253121 102.010526,50.3935341 100.903099,54.5068359 C99.7956712,58.6201378 98.8464619,62.3971996 98.0554423,65.8381348 C97.2644228,69.2790699 96.8689189,71.4213825 96.8689189,72.2651367 C96.8161843,73.5571354 96.9282437,74.6249958 97.2051005,75.46875 C97.4819574,76.3125042 97.9631538,77.2089796 98.6487041,78.1582031 C98.9123773,78.474611 99.0046615,78.8305644 98.9255595,79.2260742 C98.8464576,79.621584 98.6750726,79.964354 98.4113994,80.2543945 C98.1477262,80.544435 97.8181396,80.742187 97.4226298,80.8476563 C97.0271201,80.9531255 96.6316162,80.8872082 96.2361064,80.6499023 C95.1023117,79.6215769 94.2585701,78.4482488 93.7048564,77.1298828 Z M127.758079,47.8623047 C127.731712,47.4404276 127.560327,47.1767583 127.243919,47.0712891 C126.927511,46.9658198 126.564966,46.9460446 126.156272,47.0119629 C125.747579,47.0778812 125.325708,47.1833489 124.890647,47.3283691 C124.455587,47.4733894 124.079858,47.5854488 123.76345,47.6645508 C121.153086,49.5366305 118.786654,51.7448603 116.664085,54.2893066 C114.541516,56.833753 112.689239,59.4638536 111.1072,62.1796875 C112.662872,62.1796875 114.126236,61.8698761 115.497337,61.2502441 C116.868437,60.6306121 118.265884,59.8461962 119.68972,58.8969727 C120.533474,58.343259 121.383807,57.6379437 122.240745,56.7810059 C123.097683,55.924068 123.888691,55.0012256 124.613792,54.0124512 C125.338893,53.0236767 125.978291,52.0019584 126.532005,50.9472656 C127.085719,49.8925729 127.494406,48.8642628 127.758079,47.8623047 Z M111.779563,76.4575195 C112.227808,76.4838869 112.636495,76.4575199 113.005638,76.378418 C113.348413,76.299316 113.776875,76.1477062 114.291038,75.923584 C114.805201,75.6994618 115.246847,75.4951181 115.615989,75.3105469 C116.644315,74.7040985 117.666033,73.9592329 118.681175,73.0759277 C119.696317,72.1926225 120.718035,71.2368215 121.74636,70.2084961 C122.431911,69.5229458 122.979024,68.9165065 123.387718,68.3891602 C123.796411,67.8618138 124.303974,67.2949249 124.910423,66.6884766 C125.305933,66.2929668 125.661886,66.213866 125.978294,66.4511719 C126.294702,66.6884777 126.663839,67.0444312 127.085716,67.519043 C126.769308,68.3891645 126.248561,69.358149 125.52346,70.4260254 C124.798359,71.4939018 124.07986,72.4101524 123.367942,73.1748047 C122.023209,74.6250073 120.526886,75.9103948 118.878929,77.0310059 C117.230971,78.1516169 115.523713,79.0678675 113.757103,79.7797852 C112.649675,80.1752949 111.29837,80.3730469 109.703147,80.3730469 C108.107925,80.3730469 106.79617,80.0961942 105.767845,79.5424805 C104.423111,78.7250936 103.401393,77.6440497 102.702659,76.2993164 C102.003925,74.9545831 101.733664,73.4648519 101.891868,71.8300781 C102.287378,68.5077959 103.229995,65.3899071 104.719749,62.4763184 C106.209503,59.5627296 107.745376,57.0380966 109.327415,54.9023438 C110.830352,52.9775294 112.583753,51.1779869 114.587669,49.5036621 C116.591585,47.8293373 118.700939,46.3989317 120.915794,45.2124023 C121.970487,44.6323213 123.117448,44.1643084 124.356712,43.8083496 C125.595976,43.4523908 126.769304,43.3403314 127.876731,43.472168 C129.036893,44.1577183 129.893818,45.2519456 130.447532,46.7548828 C131.001246,48.25782 131.080347,49.7475512 130.684837,51.2241211 C130.210225,52.9116295 129.485135,54.4804615 128.509544,55.9306641 C127.533953,57.3808666 126.393584,58.6794376 125.088401,59.826416 C123.783219,60.9733944 122.359405,61.9423789 120.816917,62.7333984 C119.274429,63.524418 117.712189,64.1176738 116.130149,64.5131836 C115.260028,64.6713875 114.198759,64.7834469 112.946311,64.8493652 C111.693864,64.9152835 110.76443,64.829591 110.157981,64.5922852 C109.762472,65.488774 109.386743,66.5236758 109.030784,67.6970215 C108.674825,68.8703672 108.417748,70.1030209 108.259544,71.3950195 C108.180442,72.0542025 108.127708,72.7792929 108.101341,73.5703125 C108.074973,74.3613321 108.285909,74.9941383 108.734153,75.46875 C109.129663,76.0224637 109.729511,76.3256833 110.533714,76.378418 C111.337917,76.4311526 111.753196,76.4575195 111.779563,76.4575195 Z M103.750755,116.99707 C104.726346,116.548826 105.741472,115.968754 106.796165,115.256836 C107.850858,114.544918 108.872576,113.767094 109.861351,112.92334 C110.850125,112.079586 111.766376,111.222661 112.61013,110.352539 C113.453884,109.482418 114.152608,108.678226 114.706321,107.939941 C115.761014,106.516106 116.842058,104.848398 117.949485,102.936768 C119.056913,101.025137 120.104998,99.1069432 121.093772,97.1821289 C122.082547,95.2573146 122.979022,93.4182217 123.783226,91.6647949 C124.587429,89.9113682 125.213643,88.4677791 125.661888,87.3339844 C122.181402,86.3320262 118.48344,85.9365224 114.567894,86.1474609 C110.652347,86.3583995 106.93461,87.0768982 103.414573,88.3029785 C99.8945361,89.5290589 96.7832391,91.2099503 94.0805888,93.3457031 C91.3779386,95.481456 89.4729283,97.9731303 88.3655009,100.820801 C87.3899101,103.404798 87.2844424,105.863514 88.0490947,108.197021 C88.8137469,110.530529 90.0398089,112.488273 91.7273173,114.070313 C93.4148258,115.652352 95.3659781,116.746579 97.580833,117.353027 C99.7956878,117.959476 101.852308,117.840825 103.750755,116.99707 Z M128.31179,80.8081055 L137.368919,44.4213867 C138.159938,44.4213867 139.010272,44.3884281 139.919944,44.3225098 C140.829617,44.2565915 141.759051,44.2236328 142.708274,44.2236328 C143.420192,44.4345714 143.75637,44.7707496 143.716819,45.2321777 C143.677268,45.6936058 143.446558,46.253903 143.024681,46.9130859 C142.787375,47.2822284 142.550072,47.7172827 142.312767,48.2182617 C142.075461,48.7192408 141.871117,49.2070289 141.699729,49.6816406 C141.528342,50.1562524 141.376732,50.5847149 141.244895,50.967041 C141.113059,51.3493671 141.047142,51.5800777 141.047142,51.6591797 L141.501976,51.2043457 C141.752465,50.9538562 142.055685,50.6704117 142.411644,50.3540039 C142.767602,50.0375961 143.149923,49.7146013 143.558616,49.3850098 C143.96731,49.0554183 144.329855,48.7851573 144.646263,48.5742188 C146.254669,47.3613221 147.988294,46.4516632 149.84719,45.8452148 C151.706086,45.2387665 153.58473,45.1464823 155.483177,45.5683594 C156.880645,46.1748077 157.836446,47.0383245 158.350608,48.1589355 C158.864771,49.2795466 159.069115,50.5913011 158.963645,52.0942383 C158.910911,54.7046029 158.554957,57.347887 157.895774,60.0241699 C157.236591,62.7004528 156.261015,65.1723519 154.969017,67.4399414 C153.808855,69.4174904 152.411408,71.1840743 150.776634,72.7397461 C149.14186,74.2954179 147.243441,75.468746 145.081321,76.2597656 C143.894792,76.6025408 142.774198,76.7014167 141.719505,76.5563965 C140.664812,76.4113762 139.821071,75.8378956 139.188255,74.8359375 C138.74001,74.1240199 138.502708,73.3000535 138.476341,72.3640137 C138.449973,71.4279738 138.594992,70.4853563 138.911399,69.5361328 C139.227807,68.5869093 139.689228,67.6574753 140.295677,66.7478027 C140.902125,65.8381302 141.640399,65.0668977 142.51052,64.434082 C143.116969,63.9858376 143.42678,64.0715301 143.439964,64.6911621 C143.453147,65.3107941 143.19607,66.0292928 142.668724,66.8466797 C142.194112,67.6113319 141.739282,68.3825645 141.304222,69.1604004 C140.869161,69.9382363 140.743918,70.6831019 140.928489,71.3950195 C141.033958,71.843264 141.264669,72.1728505 141.620628,72.3837891 C141.976587,72.5947276 142.391866,72.634278 142.866478,72.5024414 C143.736599,72.2651355 144.619891,71.7905309 145.51638,71.0786133 C146.412869,70.3666957 147.164326,69.7338895 147.770774,69.1801758 C149.590119,67.1762595 150.829365,64.8559702 151.488548,62.2192383 C152.147731,59.5825063 152.701436,57.0380982 153.149681,54.5859375 C153.202415,54.1904277 153.281516,53.7092314 153.386985,53.142334 C153.492455,52.5754366 153.558372,52.0085478 153.584739,51.4416504 C153.611107,50.874753 153.578148,50.3342311 153.485862,49.8200684 C153.393577,49.3059056 153.17605,48.930177 152.833274,48.6928711 C152.38503,48.4555652 151.844508,48.4160148 151.211692,48.5742188 C150.578877,48.7324227 149.939479,48.9829084 149.293479,49.3256836 C148.64748,49.6684587 148.027857,50.0507791 147.434593,50.4726563 C146.841328,50.8945334 146.360132,51.2636703 145.990989,51.5800781 C144.329848,52.8720768 142.840117,54.434317 141.521751,56.2668457 C140.203385,58.0993744 139.188258,59.9384673 138.476341,61.7841797 C137.817158,63.9462999 137.13821,66.147938 136.439476,68.3891602 C135.740742,70.6303823 135.061793,72.8122452 134.40261,74.9348145 C133.743427,77.0573837 133.117213,79.0678616 132.523948,80.9663086 C131.930684,82.8647556 131.409937,84.5654222 130.961692,86.0683594 L130.961692,86.1079102 C130.961692,86.1870121 131.311054,86.5891077 132.009788,87.314209 C132.708522,88.0393103 133.367695,88.9291939 133.987327,89.9838867 C134.606959,91.0385795 134.976096,92.1987241 135.094749,93.4643555 C135.213402,94.7299868 134.719022,95.9692322 133.611595,97.1821289 C133.717064,95.7582937 133.598413,94.5058648 133.255638,93.4248047 C132.912863,92.3437446 132.504175,91.4472692 132.029563,90.7353516 C131.554952,90.0234339 131.106714,89.5158707 130.684837,89.2126465 C130.26296,88.9094223 130.038841,88.8105463 130.012474,88.9160156 C129.247821,91.1572378 128.338162,93.4775271 127.28347,95.8769531 C126.228777,98.2763792 125.081816,100.543935 123.842552,102.679688 C122.866961,104.393563 121.91116,105.955803 120.97512,107.366455 C120.03908,108.777107 119.056912,110.075678 118.028587,111.262207 C117.000261,112.448736 115.879667,113.562739 114.66677,114.604248 C113.453874,115.645757 112.056427,116.667475 110.474388,117.669434 C108.259533,119.066902 106.038119,119.838134 103.810081,119.983154 C101.582043,120.128175 99.3474457,119.950198 97.1062236,119.449219 C95.6823883,119.106444 94.2124323,118.486821 92.6963115,117.590332 C91.1801906,116.693843 89.822294,115.586432 88.622581,114.268066 C87.422868,112.9497 86.4736587,111.459969 85.7749248,109.798828 C85.0761908,108.137687 84.8454802,106.35792 85.0827861,104.459473 C85.6364998,100.240702 87.2448822,96.6218413 89.9079814,93.6027832 C92.5710807,90.5837251 95.8405792,88.2304772 99.7165752,86.5429688 C103.592571,84.8554603 107.877196,83.8469255 112.570579,83.517334 C117.263962,83.1877425 121.90454,83.5898381 126.492454,84.7236328 C127.230739,83.3788995 127.837178,82.0737368 128.31179,80.8081055 Z M180.162864,44.6982422 C180.953884,44.8564461 181.566915,45.225583 182.001976,45.8056641 C182.437036,46.3857451 182.733664,47.0515099 182.891868,47.8029785 C183.050072,48.5544471 183.089622,49.3388631 183.01052,50.15625 C182.931419,50.9736369 182.812767,51.6987273 182.654563,52.331543 C182.522727,52.7797874 182.252466,53.1093739 181.843772,53.3203125 C181.435079,53.5312511 180.993433,53.630127 180.518821,53.6169434 C180.04421,53.6037597 179.615747,53.4785168 179.233421,53.2412109 C178.851095,53.0039051 178.620384,52.6479516 178.541282,52.1733398 C178.514915,51.936034 178.422631,51.6987317 178.264427,51.4614258 C178.106223,51.2241199 177.855737,51.1582026 177.512962,51.2636719 C176.959248,51.4218758 176.339625,51.7778293 175.654075,52.331543 C174.968525,52.8852567 174.276393,53.5180628 173.577659,54.2299805 C172.878925,54.9418981 172.232936,55.653805 171.639671,56.3657227 C171.046406,57.0776403 170.591577,57.6708961 170.275169,58.1455078 C169.37868,59.4375065 168.469021,61.1249896 167.546165,63.2080078 C166.623309,65.291026 165.871851,67.6508657 165.29177,70.2875977 C165.186301,70.6831074 165.080833,71.2038542 164.975364,71.8498535 C164.869895,72.4958528 164.73806,73.1550259 164.579856,73.8273926 C164.421652,74.4997592 164.243676,75.1391571 164.045921,75.7456055 C163.848166,76.3520538 163.591088,76.8398419 163.274681,77.2089844 C162.58913,77.9472693 161.804714,78.2636724 160.921409,78.1582031 C160.038104,78.0527338 159.609641,77.5517623 159.636009,76.6552734 C160.558865,72.1991965 161.442157,67.7102277 162.285911,63.1882324 C163.129665,58.6662372 164.026141,54.1640849 164.975364,49.6816406 C165.080833,49.2070289 165.173118,48.7258325 165.25222,48.2380371 C165.331322,47.7502417 165.502707,47.3349627 165.76638,46.9921875 C166.240992,46.5175758 166.755147,46.2539065 167.30886,46.2011719 C167.862574,46.1484372 168.403096,46.1352538 168.930442,46.1616211 C169.510523,46.2143557 170.011495,46.2868648 170.433372,46.3791504 C170.855249,46.471436 171.263936,46.7021466 171.659446,47.0712891 C172.054956,47.4667989 172.114282,47.9743621 171.837425,48.5939941 C171.560568,49.2136261 171.316674,49.7739233 171.105735,50.2749023 C170.894797,50.7495141 170.637719,51.3823203 170.334495,52.1733398 L169.424827,54.5463867 C169.121603,55.3374063 168.864525,56.0361298 168.653587,56.6425781 C168.442648,57.2490265 168.337181,57.578613 168.337181,57.6313477 C168.389915,57.5522457 168.719502,57.0117238 169.32595,56.0097656 C169.932399,55.0078075 170.683856,53.8476628 171.580345,52.5292969 C172.476834,51.2109309 173.445818,49.8925847 174.487327,48.5742188 C175.528836,47.2558528 176.524188,46.2407262 177.473411,45.5288086 C177.921656,45.2124008 178.383077,44.9816902 178.857688,44.8366699 C179.3323,44.6916497 179.767354,44.6455075 180.162864,44.6982422 Z M204.842552,47.8623047 C204.816184,47.4404276 204.644799,47.1767583 204.328392,47.0712891 C204.011984,46.9658198 203.649439,46.9460446 203.240745,47.0119629 C202.832052,47.0778812 202.410181,47.1833489 201.97512,47.3283691 C201.540059,47.4733894 201.164331,47.5854488 200.847923,47.6645508 C198.237558,49.5366305 195.871127,51.7448603 193.748558,54.2893066 C191.625988,56.833753 189.773712,59.4638536 188.191673,62.1796875 C189.747345,62.1796875 191.210709,61.8698761 192.58181,61.2502441 C193.95291,60.6306121 195.350357,59.8461962 196.774192,58.8969727 C197.617947,58.343259 198.46828,57.6379437 199.325218,56.7810059 C200.182156,55.924068 200.973163,55.0012256 201.698265,54.0124512 C202.423366,53.0236767 203.062764,52.0019584 203.616478,50.9472656 C204.170191,49.8925729 204.578879,48.8642628 204.842552,47.8623047 Z M188.864036,76.4575195 C189.312281,76.4838869 189.720968,76.4575199 190.09011,76.378418 C190.432885,76.299316 190.861348,76.1477062 191.375511,75.923584 C191.889673,75.6994618 192.331319,75.4951181 192.700462,75.3105469 C193.728787,74.7040985 194.750506,73.9592329 195.765647,73.0759277 C196.780789,72.1926225 197.802508,71.2368215 198.830833,70.2084961 C199.516383,69.5229458 200.063497,68.9165065 200.47219,68.3891602 C200.880884,67.8618138 201.388447,67.2949249 201.994895,66.6884766 C202.390405,66.2929668 202.746359,66.213866 203.062767,66.4511719 C203.379174,66.6884777 203.748311,67.0444312 204.170188,67.519043 C203.853781,68.3891645 203.333034,69.358149 202.607933,70.4260254 C201.882831,71.4939018 201.164333,72.4101524 200.452415,73.1748047 C199.107682,74.6250073 197.611359,75.9103948 195.963401,77.0310059 C194.315444,78.1516169 192.608186,79.0678675 190.841575,79.7797852 C189.734148,80.1752949 188.382843,80.3730469 186.78762,80.3730469 C185.192397,80.3730469 183.880643,80.0961942 182.852317,79.5424805 C181.507584,78.7250936 180.485866,77.6440497 179.787132,76.2993164 C179.088398,74.9545831 178.818137,73.4648519 178.976341,71.8300781 C179.371851,68.5077959 180.314468,65.3899071 181.804222,62.4763184 C183.293975,59.5627296 184.829848,57.0380966 186.411888,54.9023438 C187.914825,52.9775294 189.668225,51.1779869 191.672142,49.5036621 C193.676058,47.8293373 195.785412,46.3989317 198.000267,45.2124023 C199.054959,44.6323213 200.201921,44.1643084 201.441185,43.8083496 C202.680449,43.4523908 203.853777,43.3403314 204.961204,43.472168 C206.121366,44.1577183 206.978291,45.2519456 207.532005,46.7548828 C208.085719,48.25782 208.164819,49.7475512 207.76931,51.2241211 C207.294698,52.9116295 206.569607,54.4804615 205.594017,55.9306641 C204.618426,57.3808666 203.478056,58.6794376 202.172874,59.826416 C200.867692,60.9733944 199.443878,61.9423789 197.90139,62.7333984 C196.358901,63.524418 194.796661,64.1176738 193.214622,64.5131836 C192.3445,64.6713875 191.283232,64.7834469 190.030784,64.8493652 C188.778336,64.9152835 187.848902,64.829591 187.242454,64.5922852 C186.846944,65.488774 186.471216,66.5236758 186.115257,67.6970215 C185.759298,68.8703672 185.50222,70.1030209 185.344017,71.3950195 C185.264915,72.0542025 185.212181,72.7792929 185.185813,73.5703125 C185.159446,74.3613321 185.370382,74.9941383 185.818626,75.46875 C186.214136,76.0224637 186.813983,76.3256833 187.618186,76.378418 C188.42239,76.4311526 188.837669,76.4575195 188.864036,76.4575195 Z M225.48806,44.5400391 C226.490018,44.5400391 227.294209,44.8564421 227.900657,45.4892578 C228.507106,46.1220735 228.994894,46.7812466 229.364036,47.4667969 C229.680444,48.0468779 229.81887,48.6401337 229.779319,49.246582 C229.739768,49.8530304 229.324489,50.3540019 228.53347,50.7495117 C227.821552,51.1186542 227.300805,50.9472692 226.971214,50.2353516 C226.641622,49.5234339 226.358178,48.9038112 226.120872,48.3764648 C225.408954,47.9018531 224.644314,47.8952614 223.826927,48.3566895 C223.00954,48.8181175 222.324,49.2861304 221.770286,49.7607422 C220.135512,51.0263735 218.67874,52.5490634 217.399925,54.3288574 C216.12111,56.1086515 215.402611,57.908194 215.244407,59.7275391 C215.376244,60.2548854 215.686055,60.584472 216.173851,60.7163086 C216.661646,60.8481452 217.156026,60.9536129 217.657005,61.0327148 C219.028105,61.1909188 220.346452,61.4018542 221.612083,61.6655273 C222.877714,61.9292005 224.064226,62.3774382 225.171653,63.0102539 C226.041775,63.7221715 226.575705,64.7570733 226.77346,66.1149902 C226.971215,67.4729072 226.872339,68.8110286 226.476829,70.1293945 C226.081319,70.9467814 225.547389,71.8234816 224.875022,72.7595215 C224.202656,73.6955613 223.477565,74.5986285 222.699729,75.46875 C221.921894,76.3388715 221.157253,77.136471 220.405784,77.8615723 C219.654316,78.5866735 219.014918,79.1865211 218.487571,79.6611328 C217.775654,80.2148465 216.951687,80.814694 216.015647,81.4606934 C215.079608,82.1066927 214.09744,82.7065402 213.069114,83.2602539 C212.040789,83.8139676 211.01907,84.2622053 210.003929,84.6049805 C208.988787,84.9477556 208.072536,85.0927737 207.255149,85.0400391 C205.963151,84.8818351 204.980983,84.3281297 204.308616,83.3789063 C203.63625,82.4296828 203.339622,81.295905 203.418724,79.9775391 C203.55056,79.3183561 203.754904,78.6130409 204.031761,77.8615723 C204.308618,77.1101037 204.816181,76.4707058 205.554466,75.9433594 C206.424587,75.7060535 206.958518,75.9169889 207.156272,76.5761719 C207.354027,77.2353549 207.281518,77.8813445 206.938743,78.5141602 C206.569601,79.2260778 206.510275,79.9709434 206.760765,80.7487793 C207.011254,81.5266152 207.558368,81.9155273 208.402122,81.9155273 C209.11404,81.9155273 209.918231,81.6650416 210.81472,81.1640625 C211.711209,80.6630834 212.601092,80.0632359 213.484397,79.364502 C214.367703,78.665768 215.191669,77.9472693 215.956321,77.2089844 C216.720974,76.4706994 217.301046,75.8247098 217.696556,75.2709961 C217.933861,74.9545883 218.30959,74.3613325 218.823753,73.4912109 C219.337916,72.6210894 219.81252,71.7114305 220.247581,70.762207 C220.682642,69.8129835 220.999045,68.9230999 221.1968,68.0925293 C221.394555,67.2619587 221.308862,66.7148451 220.93972,66.4511719 C220.1487,66.0292948 219.272,65.7458503 218.309593,65.6008301 C217.347186,65.4558098 216.391385,65.3305669 215.442161,65.2250977 C214.492938,65.1196284 213.563504,64.9548351 212.653831,64.7307129 C211.744158,64.5065907 210.933376,64.0913116 210.221458,63.4848633 C209.324969,62.799313 208.810814,61.9489797 208.678978,60.9338379 C208.547141,59.9186961 208.665792,58.8310605 209.034935,57.6708984 C209.905056,55.904288 211.078384,54.2168049 212.554954,52.6083984 C214.031524,50.999992 215.494888,49.5761781 216.945091,48.3369141 C218.210722,47.3876906 219.555435,46.4846234 220.97927,45.6276855 C222.403106,44.7707477 223.90602,44.4082025 225.48806,44.5400391 Z M247.478294,44.5400391 C248.480252,44.5400391 249.284443,44.8564421 249.890892,45.4892578 C250.49734,46.1220735 250.985128,46.7812466 251.35427,47.4667969 C251.670678,48.0468779 251.809105,48.6401337 251.769554,49.246582 C251.730003,49.8530304 251.314724,50.3540019 250.523704,50.7495117 C249.811786,51.1186542 249.29104,50.9472692 248.961448,50.2353516 C248.631857,49.5234339 248.348412,48.9038112 248.111106,48.3764648 C247.399189,47.9018531 246.634548,47.8952614 245.817161,48.3566895 C244.999774,48.8181175 244.314234,49.2861304 243.76052,49.7607422 C242.125747,51.0263735 240.668974,52.5490634 239.390159,54.3288574 C238.111344,56.1086515 237.392845,57.908194 237.234642,59.7275391 C237.366478,60.2548854 237.67629,60.584472 238.164085,60.7163086 C238.65188,60.8481452 239.14626,60.9536129 239.647239,61.0327148 C241.01834,61.1909188 242.336686,61.4018542 243.602317,61.6655273 C244.867949,61.9292005 246.05446,62.3774382 247.161888,63.0102539 C248.032009,63.7221715 248.565939,64.7570733 248.763694,66.1149902 C248.961449,67.4729072 248.862573,68.8110286 248.467063,70.1293945 C248.071554,70.9467814 247.537623,71.8234816 246.865257,72.7595215 C246.19289,73.6955613 245.4678,74.5986285 244.689964,75.46875 C243.912128,76.3388715 243.147487,77.136471 242.396019,77.8615723 C241.64455,78.5866735 241.005152,79.1865211 240.477806,79.6611328 C239.765888,80.2148465 238.941922,80.814694 238.005882,81.4606934 C237.069842,82.1066927 236.087674,82.7065402 235.059349,83.2602539 C234.031023,83.8139676 233.009305,84.2622053 231.994163,84.6049805 C230.979021,84.9477556 230.062771,85.0927737 229.245384,85.0400391 C227.953385,84.8818351 226.971217,84.3281297 226.298851,83.3789063 C225.626484,82.4296828 225.329856,81.295905 225.408958,79.9775391 C225.540795,79.3183561 225.745138,78.6130409 226.021995,77.8615723 C226.298852,77.1101037 226.806415,76.4707058 227.5447,75.9433594 C228.414822,75.7060535 228.948752,75.9169889 229.146507,76.5761719 C229.344262,77.2353549 229.271753,77.8813445 228.928978,78.5141602 C228.559835,79.2260778 228.500509,79.9709434 228.750999,80.7487793 C229.001489,81.5266152 229.548602,81.9155273 230.392356,81.9155273 C231.104274,81.9155273 231.908465,81.6650416 232.804954,81.1640625 C233.701443,80.6630834 234.591327,80.0632359 235.474632,79.364502 C236.357937,78.665768 237.181903,77.9472693 237.946556,77.2089844 C238.711208,76.4706994 239.29128,75.8247098 239.68679,75.2709961 C239.924096,74.9545883 240.299825,74.3613325 240.813987,73.4912109 C241.32815,72.6210894 241.802755,71.7114305 242.237815,70.762207 C242.672876,69.8129835 242.989279,68.9230999 243.187034,68.0925293 C243.384789,67.2619587 243.299097,66.7148451 242.929954,66.4511719 C242.138934,66.0292948 241.262234,65.7458503 240.299827,65.6008301 C239.33742,65.4558098 238.381619,65.3305669 237.432395,65.2250977 C236.483172,65.1196284 235.553738,64.9548351 234.644065,64.7307129 C233.734393,64.5065907 232.92361,64.0913116 232.211692,63.4848633 C231.315203,62.799313 230.801048,61.9489797 230.669212,60.9338379 C230.537375,59.9186961 230.656026,58.8310605 231.025169,57.6708984 C231.89529,55.904288 233.068619,54.2168049 234.545188,52.6083984 C236.021758,50.999992 237.485123,49.5761781 238.935325,48.3369141 C240.200956,47.3876906 241.54567,46.4846234 242.969505,45.6276855 C244.39334,44.7707477 245.896255,44.4082025 247.478294,44.5400391 Z M278.64431,51.1845703 C278.222432,50.5253873 277.523709,50.1101083 276.548118,49.9387207 C275.572527,49.7673331 274.715602,49.8793926 273.977317,50.2749023 C272.632584,50.907718 271.287871,51.8437438 269.943138,53.0830078 C268.598404,54.3222718 267.43826,55.469233 266.462669,56.5239258 C263.720468,59.8198407 261.413362,63.2211739 259.541282,66.7280273 C259.277609,67.2290064 258.974389,67.874996 258.631614,68.6660156 C258.288839,69.4570352 258.011986,70.2480429 257.801048,71.0390625 C257.590109,71.8300821 257.504417,72.5551725 257.543968,73.2143555 C257.583519,73.8735385 257.840596,74.3217762 258.315208,74.559082 C258.578881,74.7172859 258.934835,74.7106942 259.383079,74.5393066 C259.831323,74.3679191 260.292745,74.124025 260.767356,73.8076172 C261.241968,73.4912094 261.723165,73.1418476 262.21096,72.7595215 C262.698755,72.3771954 263.127218,72.067384 263.49636,71.8300781 C265.816684,69.7470599 268.104015,67.565197 270.358421,65.2844238 C272.612827,63.0036507 274.728772,60.571302 276.706321,57.9873047 C277.31277,57.0644485 277.701682,55.9768129 277.873069,54.7243652 C278.044457,53.4719176 278.301534,52.2919977 278.64431,51.1845703 Z M274.807884,77.1298828 C274.781516,77.0771482 274.768333,77.0639647 274.768333,77.090332 C274.320089,75.8774353 274.063011,74.6909238 273.997093,73.5307617 C273.931174,72.3705997 273.964133,71.0786204 274.09597,69.6547852 C274.148704,68.7582963 274.254172,67.7036193 274.412376,66.4907227 C274.57058,65.277826 274.689231,64.4736348 274.768333,64.078125 C274.372823,64.4736348 273.746609,65.1196244 272.889671,66.0161133 C272.032733,66.9126021 271.07034,67.8815866 270.002464,68.9230957 C268.934587,69.9646048 267.807401,71.0192818 266.620872,72.0871582 C265.434343,73.1550346 264.313748,74.0712852 263.259056,74.8359375 C262.151628,75.6533244 260.905791,76.5102494 259.521507,77.4067383 C258.137223,78.3032271 256.733184,78.7514648 255.309349,78.7514648 C254.122819,78.5932609 253.272486,78.0988811 252.758323,77.2683105 C252.24416,76.43774 251.987083,75.5083059 251.987083,74.4799805 C252.039818,73.4252877 252.105735,72.3112852 252.184837,71.1379395 C252.263939,69.9645937 252.501241,68.9033251 252.896751,67.9541016 C254.320586,64.4999827 256.041028,61.2436676 258.058128,58.1850586 C260.075228,55.1264496 262.665778,52.3842895 265.829856,49.9584961 C267.253692,48.9038033 268.941175,47.9414106 270.892356,47.0712891 C272.843538,46.2011675 274.71559,45.7661133 276.508567,45.7661133 C276.824975,45.7661133 277.121603,45.8452141 277.39846,46.003418 C277.675317,46.1616219 278.024679,46.2407227 278.446556,46.2407227 C279.448514,42.9184404 280.377948,39.6753088 281.234886,36.5112305 C282.091824,33.3471521 283.192643,30.1040205 284.537376,26.7817383 C284.774682,26.2016573 285.058126,25.522709 285.387718,24.744873 C285.717309,23.9670371 286.158955,23.3408227 286.712669,22.8662109 C287.477321,22.3915992 288.228778,22.2597646 288.967063,22.4707031 C289.705348,22.6816417 290.50954,22.7871094 291.379661,22.7871094 C291.933375,23.3144558 292.190452,23.9472619 292.150901,24.6855469 C292.11135,25.4238318 291.893823,26.1489222 291.498313,26.8608398 C290.812763,28.1528385 290.232691,29.4052674 289.758079,30.6181641 C289.283467,31.8310608 288.782496,33.0834896 288.255149,34.3754883 C287.516864,36.0366294 286.567655,38.7787895 285.407493,42.6020508 C284.247331,46.4253121 283.113553,50.3935341 282.006126,54.5068359 C280.898699,58.6201378 279.949489,62.3971996 279.15847,65.8381348 C278.36745,69.2790699 277.971946,71.4213825 277.971946,72.2651367 C277.919212,73.5571354 278.031271,74.6249958 278.308128,75.46875 C278.584985,76.3125042 279.066181,77.2089796 279.751731,78.1582031 C280.015405,78.474611 280.107689,78.8305644 280.028587,79.2260742 C279.949485,79.621584 279.7781,79.964354 279.514427,80.2543945 C279.250754,80.544435 278.921167,80.742187 278.525657,80.8476563 C278.130147,80.9531255 277.734644,80.8872082 277.339134,80.6499023 C276.205339,79.6215769 275.361597,78.4482488 274.807884,77.1298828 Z"/>
        <path id="path-2" d="M138.554051,169.827148 L138.554051,174.260742 C138.554051,174.781578 138.651707,175.214517 138.84702,175.55957 C139.136735,176.080406 139.625011,176.34082 140.311864,176.34082 C141.135436,176.34082 141.695326,176.059248 141.991551,175.496094 C142.151057,175.190103 142.230809,174.778323 142.230809,174.260742 L142.230809,169.827148 L143.217137,169.827148 L143.217137,173.855469 C143.217137,174.737635 143.098323,175.416339 142.860692,175.891602 C142.424492,176.757491 141.600932,177.19043 140.389989,177.19043 C139.179045,177.19043 138.357113,176.757491 137.924168,175.891602 C137.686537,175.416339 137.567723,174.737635 137.567723,173.855469 L137.567723,169.827148 L138.554051,169.827148 Z M145.336278,177 L144.164403,177 L146.732762,173.323242 L144.325536,169.827148 L145.541356,169.827148 L147.372411,172.571289 L149.188817,169.827148 L150.346043,169.827148 L147.938817,173.323242 L150.463231,177 L149.257176,177 L147.323582,174.050781 L145.336278,177 Z M153.856786,174.861328 L153.856786,174.041016 L155.985692,174.041016 L155.985692,171.897461 L156.820653,171.897461 L156.820653,174.041016 L158.949559,174.041016 L158.949559,174.861328 L156.820653,174.861328 L156.820653,177 L155.985692,177 L155.985692,174.861328 L153.856786,174.861328 Z M163.842137,169.827148 L163.842137,174.260742 C163.842137,174.781578 163.939792,175.214517 164.135106,175.55957 C164.424821,176.080406 164.913097,176.34082 165.59995,176.34082 C166.423522,176.34082 166.983412,176.059248 167.279637,175.496094 C167.439143,175.190103 167.518895,174.778323 167.518895,174.260742 L167.518895,169.827148 L168.505223,169.827148 L168.505223,173.855469 C168.505223,174.737635 168.386409,175.416339 168.148778,175.891602 C167.712578,176.757491 166.889018,177.19043 165.678075,177.19043 C164.467131,177.19043 163.645199,176.757491 163.212254,175.891602 C162.974623,175.416339 162.855809,174.737635 162.855809,173.855469 L162.855809,169.827148 L163.842137,169.827148 Z M170.228856,169.827148 L171.210301,169.827148 L171.210301,177 L170.228856,177 L170.228856,169.827148 Z M178.319676,176.169922 C178.648454,176.169922 178.918634,176.135743 179.130223,176.067383 C179.507829,175.940429 179.817071,175.696291 180.057957,175.334961 C180.250016,175.045246 180.388361,174.674156 180.472997,174.22168 C180.521825,173.951496 180.546239,173.700848 180.546239,173.469727 C180.546239,172.58105 180.369645,171.890953 180.016454,171.399414 C179.663262,170.907875 179.09442,170.662109 178.309911,170.662109 L176.586278,170.662109 L176.586278,176.169922 L178.319676,176.169922 Z M175.609715,169.827148 L178.514989,169.827148 C179.501322,169.827148 180.266288,170.17708 180.809911,170.876953 C181.294939,171.508467 181.53745,172.317378 181.53745,173.303711 C181.53745,174.065433 181.394222,174.753903 181.107762,175.369141 C180.603202,176.456386 179.735698,177 178.505223,177 L175.609715,177 L175.609715,169.827148 Z M182.880223,169.827148 L188.109715,169.827148 L188.109715,170.706055 L183.827489,170.706055 L183.827489,172.883789 L187.78745,172.883789 L187.78745,173.713867 L183.827489,173.713867 L183.827489,176.145508 L188.182957,176.145508 L188.182957,177 L182.880223,177 L182.880223,169.827148 Z M190.023778,169.827148 L192.084325,175.935547 L194.120457,169.827148 L195.209325,169.827148 L192.592137,177 L191.561864,177 L188.949559,169.827148 L190.023778,169.827148 Z M196.220067,169.827148 L201.449559,169.827148 L201.449559,170.706055 L197.167332,170.706055 L197.167332,172.883789 L201.127293,172.883789 L201.127293,173.713867 L197.167332,173.713867 L197.167332,176.145508 L201.522801,176.145508 L201.522801,177 L196.220067,177 L196.220067,169.827148 Z M202.797215,169.827148 L203.768895,169.827148 L203.768895,176.145508 L207.401707,176.145508 L207.401707,177 L202.797215,177 L202.797215,169.827148 Z M211.454442,169.631836 C212.720724,169.631836 213.658215,170.038733 214.266942,170.852539 C214.742205,171.487308 214.979832,172.299474 214.979832,173.289062 C214.979832,174.360031 214.708025,175.250322 214.164403,175.959961 C213.526379,176.793298 212.616557,177.209961 211.434911,177.209961 C210.331389,177.209961 209.463885,176.845381 208.832372,176.116211 C208.269218,175.413082 207.987645,174.524419 207.987645,173.450195 C207.987645,172.480138 208.228528,171.650069 208.710301,170.959961 C209.328794,170.07454 210.243498,169.631836 211.454442,169.631836 Z M211.552098,176.34082 C212.408222,176.34082 213.027519,176.03402 213.410008,175.42041 C213.792497,174.8068 213.983739,174.101241 213.983739,173.303711 C213.983739,172.460608 213.763201,171.781904 213.322118,171.267578 C212.881035,170.753253 212.278013,170.496094 211.513036,170.496094 C210.770844,170.496094 210.165382,170.750811 209.696629,171.260254 C209.227877,171.769697 208.993504,172.520828 208.993504,173.513672 C208.993504,174.307947 209.194511,174.977699 209.596532,175.522949 C209.998552,176.068199 210.650401,176.34082 211.552098,176.34082 Z M216.229832,169.827148 L219.457372,169.827148 C220.095396,169.827148 220.609713,170.006997 221.00034,170.366699 C221.390967,170.726402 221.586278,171.231768 221.586278,171.882812 C221.586278,172.442711 221.412126,172.930174 221.063817,173.345215 C220.715508,173.760256 220.180031,173.967773 219.457372,173.967773 L217.201512,173.967773 L217.201512,177 L216.229832,177 L216.229832,169.827148 Z M220.604832,171.887695 C220.604832,171.360349 220.409522,171.00228 220.018895,170.813477 C219.80405,170.712565 219.509457,170.662109 219.135106,170.662109 L217.201512,170.662109 L217.201512,173.147461 L219.135106,173.147461 C219.571306,173.147461 219.925306,173.054688 220.197118,172.869141 C220.468929,172.683593 220.604832,172.356448 220.604832,171.887695 Z M222.782567,169.827148 L224.174168,169.827148 L226.234715,175.891602 L228.280614,169.827148 L229.657567,169.827148 L229.657567,177 L228.734715,177 L228.734715,172.766602 C228.734715,172.620116 228.73797,172.377606 228.744481,172.039062 C228.750991,171.700519 228.754247,171.337567 228.754247,170.950195 L226.708348,177 L225.746434,177 L223.685887,170.950195 L223.685887,171.169922 C223.685887,171.345704 223.689956,171.613442 223.698094,171.973145 C223.706232,172.332847 223.710301,172.59733 223.710301,172.766602 L223.710301,177 L222.782567,177 L222.782567,169.827148 Z M231.229832,169.827148 L236.459325,169.827148 L236.459325,170.706055 L232.177098,170.706055 L232.177098,172.883789 L236.137059,172.883789 L236.137059,173.713867 L232.177098,173.713867 L232.177098,176.145508 L236.532567,176.145508 L236.532567,177 L231.229832,177 L231.229832,169.827148 Z M237.806981,169.827148 L238.954442,169.827148 L242.577489,175.637695 L242.577489,169.827148 L243.50034,169.827148 L243.50034,177 L242.411473,177 L238.734715,171.194336 L238.734715,177 L237.806981,177 L237.806981,169.827148 Z M250.248387,169.827148 L250.248387,170.681641 L247.831395,170.681641 L247.831395,177 L246.845067,177 L246.845067,170.681641 L244.428075,170.681641 L244.428075,169.827148 L250.248387,169.827148 Z"/>
    </defs>
    <g id="Page-1" fill="none" fill-rule="evenodd" stroke="none" stroke-width="1">
        <g id="SVG-Layer-2" transform="translate(-6.000000, 0.000000)">
            <g id="SVG-Layer" transform="translate(0.000000, 0.500000)">
                <g id="Page-1">
                    <g id="Codepressd" transform="translate(147.412900, 109.216322) rotate(-6.000000) translate(-147.412900, -109.216322) translate(4.412900, 60.716322)">
                        <g>
                            <use fill="#000000" xlink:href="#path-1"/>
                            <use fill="#464546" xlink:href="#path-1"/>
                        </g>
                    </g>
                    <g id="UX-+-UI-DEVELOPMENT">
                        <use fill="#000000" xlink:href="#path-2"/>
                        <use fill="#464546" xlink:href="#path-2"/>
                    </g>
                    <path id="logo-circle" stroke="#464546" d="M35.7250351,163.304606 C36.0440204,164.383427 36.3783363,165.455668 36.7277305,166.521076 C51.8623711,212.671152 95.2890008,246 146.5,246 C208.517444,246 259.118606,197.121089 261.88121,135.785543 C261.923309,134.850869 261.954299,133.913301 261.97405,132.97297 M257.847913,91.7000167 C257.40869,90.1086242 256.936265,88.5310068 256.43143,86.9679566 C241.444014,40.5644804 197.891709,7 146.5,7 C100.618917,7 60.9861678,33.7523002 42.3495282,72.5091258 C41.7712011,73.711817 41.2130926,74.9260681 40.6756434,76.1514385"/>
                    <path id="logo-circle-copy" stroke="#8E8E8E" d="M28.9136741,163.960507 C43.7997403,214.838573 90.810112,252 146.5,252 C214.154882,252 269,197.154882 269,129.5 M264.666376,90.088437 C250.45633,38.16222 202.934797,0 146.5,0 C95.3963759,0 51.6015545,31.2927043 33.2319564,75.7616923 C32.8235822,76.7502814 32.4277737,77.7453825 32.0447297,78.7467964"/>
                </g>
            </g>
        </g>
    </g>
</svg>
